<?xml version="1.0" encoding="UTF-8"?>
<!DOCTYPE svg PUBLIC "-//W3C//DTD SVG 1.1//EN" "http://www.w3.org/Graphics/SVG/1.1/DTD/svg11.dtd">
<svg version="1.2" width="15.23mm" height="10.47mm" viewBox="23730 194202 1523 1047" preserveAspectRatio="xMidYMid" fill-rule="evenodd" stroke-width="28.222" stroke-linejoin="round" xmlns="http://www.w3.org/2000/svg" xmlns:ooo="http://xml.openoffice.org/svg/export" xmlns:xlink="http://www.w3.org/1999/xlink" xmlns:presentation="http://sun.com/xmlns/staroffice/presentation" xmlns:smil="http://www.w3.org/2001/SMIL20/" xmlns:anim="urn:oasis:names:tc:opendocument:xmlns:animation:1.0" xml:space="preserve">
 <defs class="EmbeddedBulletChars">
  <g id="bullet-char-template-57356" transform="scale(0.00048828125,-0.00048828125)">
   <path d="M 580,1141 L 1163,571 580,0 -4,571 580,1141 Z"/>
  </g>
  <g id="bullet-char-template-57354" transform="scale(0.00048828125,-0.00048828125)">
   <path d="M 8,1128 L 1137,1128 1137,0 8,0 8,1128 Z"/>
  </g>
  <g id="bullet-char-template-10146" transform="scale(0.00048828125,-0.00048828125)">
   <path d="M 174,0 L 602,739 174,1481 1456,739 174,0 Z M 1358,739 L 309,1346 659,739 1358,739 Z"/>
  </g>
  <g id="bullet-char-template-10132" transform="scale(0.00048828125,-0.00048828125)">
   <path d="M 2015,739 L 1276,0 717,0 1260,543 174,543 174,936 1260,936 717,1481 1274,1481 2015,739 Z"/>
  </g>
  <g id="bullet-char-template-10007" transform="scale(0.00048828125,-0.00048828125)">
   <path d="M 0,-2 C -7,14 -16,27 -25,37 L 356,567 C 262,823 215,952 215,954 215,979 228,992 255,992 264,992 276,990 289,987 310,991 331,999 354,1012 L 381,999 492,748 772,1049 836,1024 860,1049 C 881,1039 901,1025 922,1006 886,937 835,863 770,784 769,783 710,716 594,584 L 774,223 C 774,196 753,168 711,139 L 727,119 C 717,90 699,76 672,76 641,76 570,178 457,381 L 164,-76 C 142,-110 111,-127 72,-127 30,-127 9,-110 8,-76 1,-67 -2,-52 -2,-32 -2,-23 -1,-13 0,-2 Z"/>
  </g>
  <g id="bullet-char-template-10004" transform="scale(0.00048828125,-0.00048828125)">
   <path d="M 285,-33 C 182,-33 111,30 74,156 52,228 41,333 41,471 41,549 55,616 82,672 116,743 169,778 240,778 293,778 328,747 346,684 L 369,508 C 377,444 397,411 428,410 L 1163,1116 C 1174,1127 1196,1133 1229,1133 1271,1133 1292,1118 1292,1087 L 1292,965 C 1292,929 1282,901 1262,881 L 442,47 C 390,-6 338,-33 285,-33 Z"/>
  </g>
  <g id="bullet-char-template-9679" transform="scale(0.00048828125,-0.00048828125)">
   <path d="M 813,0 C 632,0 489,54 383,161 276,268 223,411 223,592 223,773 276,916 383,1023 489,1130 632,1184 813,1184 992,1184 1136,1130 1245,1023 1353,916 1407,772 1407,592 1407,412 1353,268 1245,161 1136,54 992,0 813,0 Z"/>
  </g>
  <g id="bullet-char-template-8226" transform="scale(0.00048828125,-0.00048828125)">
   <path d="M 346,457 C 273,457 209,483 155,535 101,586 74,649 74,723 74,796 101,859 155,911 209,963 273,989 346,989 419,989 480,963 531,910 582,859 608,796 608,723 608,648 583,586 532,535 482,483 420,457 346,457 Z"/>
  </g>
  <g id="bullet-char-template-8211" transform="scale(0.00048828125,-0.00048828125)">
   <path d="M -4,459 L 1135,459 1135,606 -4,606 -4,459 Z"/>
  </g>
  <g id="bullet-char-template-61548" transform="scale(0.00048828125,-0.00048828125)">
   <path d="M 173,740 C 173,903 231,1043 346,1159 462,1274 601,1332 765,1332 928,1332 1067,1274 1183,1159 1299,1043 1357,903 1357,740 1357,577 1299,437 1183,322 1067,206 928,148 765,148 601,148 462,206 346,322 231,437 173,577 173,740 Z"/>
  </g>
 </defs>
 <g class="Page">
  <g class="com.sun.star.drawing.ClosedBezierShape">
   <g id="id3">
    <rect class="BoundingBox" stroke="none" fill="none" x="23730" y="194202" width="1523" height="1047"/>
    <path fill="rgb(0,159,227)" stroke="none" d="M 25070,194513 L 25068,194510 C 25072,194510 25077,194510 25083,194508 L 25158,194486 C 25183,194478 25203,194458 25203,194441 25203,194424 25182,194407 25156,194403 L 25084,194392 C 25057,194388 25036,194407 25036,194435 L 25036,194450 24974,194333 C 24949,194287 24911,194240 24840,194218 24840,194218 24769,194202 24490,194202 24211,194202 24140,194218 24140,194218 24062,194244 24030,194287 24006,194333 L 23944,194450 23944,194435 C 23944,194407 23922,194388 23897,194392 L 23824,194403 C 23798,194407 23777,194424 23777,194441 23777,194458 23798,194478 23823,194486 L 23898,194508 C 23903,194510 23907,194510 23912,194510 L 23910,194513 C 23811,194540 23730,194645 23730,194748 L 23730,195006 C 23730,195041 23749,195072 23777,195088 L 23777,195184 C 23777,195219 23806,195248 23841,195248 L 23904,195248 C 23939,195248 23967,195219 23967,195184 L 23967,195101 25012,195101 25012,195184 C 25012,195219 25041,195248 25076,195248 L 25140,195248 C 25175,195248 25203,195219 25203,195184 L 25203,195088 C 25232,195072 25251,195041 25251,195006 L 25251,194748 C 25251,194645 25170,194540 25070,194513 Z M 24079,194819 L 23828,194811 C 23800,194810 23777,194788 23777,194762 L 23777,194714 C 23777,194687 23799,194671 23826,194678 L 24030,194730 C 24057,194737 24090,194760 24104,194781 24118,194803 24106,194820 24079,194819 Z M 23971,194500 L 24048,194355 C 24071,194312 24096,194283 24154,194263 24161,194262 24244,194249 24490,194249 24728,194249 24815,194261 24825,194263 L 24827,194264 24826,194263 C 24873,194278 24906,194306 24932,194355 L 25009,194500 C 24938,194489 24787,194475 24490,194475 24193,194475 24042,194489 23971,194500 Z M 25203,194762 C 25203,194788 25181,194810 25153,194811 L 24901,194819 C 24873,194820 24862,194803 24876,194781 24890,194760 24923,194737 24950,194730 L 25155,194678 C 25182,194671 25203,194687 25203,194714 L 25203,194762 Z"/>
   </g>
  </g>
 </g>
</svg>