<?xml version="1.0" encoding="UTF-8"?>
<!DOCTYPE svg PUBLIC "-//W3C//DTD SVG 1.1//EN" "http://www.w3.org/Graphics/SVG/1.1/DTD/svg11.dtd">
<svg version="1.2" width="55.6mm" height="10.95mm" viewBox="22999 321364 5560 1095" preserveAspectRatio="xMidYMid" fill-rule="evenodd" stroke-width="28.222" stroke-linejoin="round" xmlns="http://www.w3.org/2000/svg" xmlns:ooo="http://xml.openoffice.org/svg/export" xmlns:xlink="http://www.w3.org/1999/xlink" xmlns:presentation="http://sun.com/xmlns/staroffice/presentation" xmlns:smil="http://www.w3.org/2001/SMIL20/" xmlns:anim="urn:oasis:names:tc:opendocument:xmlns:animation:1.0" xml:space="preserve">
 <defs class="EmbeddedBulletChars">
  <g id="bullet-char-template-57356" transform="scale(0.00048828125,-0.00048828125)">
   <path d="M 580,1141 L 1163,571 580,0 -4,571 580,1141 Z"/>
  </g>
  <g id="bullet-char-template-57354" transform="scale(0.00048828125,-0.00048828125)">
   <path d="M 8,1128 L 1137,1128 1137,0 8,0 8,1128 Z"/>
  </g>
  <g id="bullet-char-template-10146" transform="scale(0.00048828125,-0.00048828125)">
   <path d="M 174,0 L 602,739 174,1481 1456,739 174,0 Z M 1358,739 L 309,1346 659,739 1358,739 Z"/>
  </g>
  <g id="bullet-char-template-10132" transform="scale(0.00048828125,-0.00048828125)">
   <path d="M 2015,739 L 1276,0 717,0 1260,543 174,543 174,936 1260,936 717,1481 1274,1481 2015,739 Z"/>
  </g>
  <g id="bullet-char-template-10007" transform="scale(0.00048828125,-0.00048828125)">
   <path d="M 0,-2 C -7,14 -16,27 -25,37 L 356,567 C 262,823 215,952 215,954 215,979 228,992 255,992 264,992 276,990 289,987 310,991 331,999 354,1012 L 381,999 492,748 772,1049 836,1024 860,1049 C 881,1039 901,1025 922,1006 886,937 835,863 770,784 769,783 710,716 594,584 L 774,223 C 774,196 753,168 711,139 L 727,119 C 717,90 699,76 672,76 641,76 570,178 457,381 L 164,-76 C 142,-110 111,-127 72,-127 30,-127 9,-110 8,-76 1,-67 -2,-52 -2,-32 -2,-23 -1,-13 0,-2 Z"/>
  </g>
  <g id="bullet-char-template-10004" transform="scale(0.00048828125,-0.00048828125)">
   <path d="M 285,-33 C 182,-33 111,30 74,156 52,228 41,333 41,471 41,549 55,616 82,672 116,743 169,778 240,778 293,778 328,747 346,684 L 369,508 C 377,444 397,411 428,410 L 1163,1116 C 1174,1127 1196,1133 1229,1133 1271,1133 1292,1118 1292,1087 L 1292,965 C 1292,929 1282,901 1262,881 L 442,47 C 390,-6 338,-33 285,-33 Z"/>
  </g>
  <g id="bullet-char-template-9679" transform="scale(0.00048828125,-0.00048828125)">
   <path d="M 813,0 C 632,0 489,54 383,161 276,268 223,411 223,592 223,773 276,916 383,1023 489,1130 632,1184 813,1184 992,1184 1136,1130 1245,1023 1353,916 1407,772 1407,592 1407,412 1353,268 1245,161 1136,54 992,0 813,0 Z"/>
  </g>
  <g id="bullet-char-template-8226" transform="scale(0.00048828125,-0.00048828125)">
   <path d="M 346,457 C 273,457 209,483 155,535 101,586 74,649 74,723 74,796 101,859 155,911 209,963 273,989 346,989 419,989 480,963 531,910 582,859 608,796 608,723 608,648 583,586 532,535 482,483 420,457 346,457 Z"/>
  </g>
  <g id="bullet-char-template-8211" transform="scale(0.00048828125,-0.00048828125)">
   <path d="M -4,459 L 1135,459 1135,606 -4,606 -4,459 Z"/>
  </g>
  <g id="bullet-char-template-61548" transform="scale(0.00048828125,-0.00048828125)">
   <path d="M 173,740 C 173,903 231,1043 346,1159 462,1274 601,1332 765,1332 928,1332 1067,1274 1183,1159 1299,1043 1357,903 1357,740 1357,577 1299,437 1183,322 1067,206 928,148 765,148 601,148 462,206 346,322 231,437 173,577 173,740 Z"/>
  </g>
 </defs>
 <g class="Page">
  <g class="com.sun.star.drawing.ClosedBezierShape">
   <g id="id3">
    <rect class="BoundingBox" stroke="none" fill="none" x="25137" y="321732" width="326" height="326"/>
    <path fill="rgb(0,159,227)" stroke="none" d="M 25179,321901 L 25306,321772 C 25358,321721 25415,321721 25462,321757 L 25163,322056 C 25127,322008 25128,321952 25179,321901 Z"/>
   </g>
  </g>
  <g class="com.sun.star.drawing.ClosedBezierShape">
   <g id="id4">
    <rect class="BoundingBox" stroke="none" fill="none" x="25137" y="322089" width="326" height="326"/>
    <path fill="rgb(0,159,227)" stroke="none" d="M 25306,322373 L 25179,322245 C 25128,322194 25127,322136 25163,322089 L 25462,322388 C 25415,322424 25358,322423 25306,322373 Z"/>
   </g>
  </g>
  <g class="com.sun.star.drawing.ClosedBezierShape">
   <g id="id5">
    <rect class="BoundingBox" stroke="none" fill="none" x="25495" y="321732" width="326" height="326"/>
    <path fill="rgb(91,197,242)" stroke="none" d="M 25650,321772 L 25779,321901 C 25830,321952 25830,322008 25794,322056 L 25495,321757 C 25543,321721 25600,321721 25650,321772 Z"/>
   </g>
  </g>
  <g class="com.sun.star.drawing.ClosedBezierShape">
   <g id="id6">
    <rect class="BoundingBox" stroke="none" fill="none" x="25495" y="322089" width="326" height="326"/>
    <path fill="rgb(91,197,242)" stroke="none" d="M 25779,322245 L 25650,322373 C 25599,322423 25543,322424 25495,322388 L 25794,322089 C 25830,322136 25830,322194 25779,322245 Z"/>
   </g>
  </g>
  <g class="com.sun.star.drawing.ClosedBezierShape">
   <g id="id7">
    <rect class="BoundingBox" stroke="none" fill="none" x="25862" y="321732" width="327" height="326"/>
    <path fill="rgb(188,228,250)" stroke="none" d="M 25903,321901 L 26032,321772 C 26083,321721 26140,321721 26187,321757 L 25888,322056 C 25852,322008 25853,321952 25903,321901 Z"/>
   </g>
  </g>
  <g class="com.sun.star.drawing.ClosedBezierShape">
   <g id="id8">
    <rect class="BoundingBox" stroke="none" fill="none" x="25863" y="322089" width="326" height="326"/>
    <path fill="rgb(188,228,250)" stroke="none" d="M 26032,322373 L 25903,322245 C 25852,322194 25852,322136 25888,322089 L 26187,322388 C 26140,322424 26083,322423 26032,322373 Z"/>
   </g>
  </g>
  <g class="com.sun.star.drawing.ClosedBezierShape">
   <g id="id9">
    <rect class="BoundingBox" stroke="none" fill="none" x="25137" y="321364" width="326" height="326"/>
    <path fill="rgb(0,159,227)" stroke="none" d="M 25306,321648 L 25179,321519 C 25128,321468 25127,321412 25163,321364 L 25462,321663 C 25415,321699 25358,321699 25306,321648 Z"/>
   </g>
  </g>
  <g class="com.sun.star.drawing.ClosedBezierShape">
   <g id="id10">
    <rect class="BoundingBox" stroke="none" fill="none" x="25495" y="321364" width="326" height="326"/>
    <path fill="rgb(91,197,242)" stroke="none" d="M 25779,321519 L 25650,321648 C 25599,321699 25543,321699 25495,321663 L 25794,321364 C 25830,321412 25830,321468 25779,321519 Z"/>
   </g>
  </g>
  <g class="com.sun.star.drawing.ClosedBezierShape">
   <g id="id11">
    <rect class="BoundingBox" stroke="none" fill="none" x="22999" y="321846" width="758" height="555"/>
    <path fill="rgb(0,56,102)" stroke="none" d="M 23756,322383 C 23756,322386 23755,322388 23754,322390 23752,322393 23750,322394 23746,322396 23743,322397 23738,322398 23732,322399 23726,322400 23718,322400 23709,322400 23700,322400 23692,322400 23686,322399 23680,322398 23675,322397 23671,322396 23668,322394 23665,322393 23664,322390 23662,322388 23661,322386 23661,322383 L 23661,322072 C 23661,322050 23660,322030 23656,322013 23652,321995 23646,321979 23638,321967 23629,321954 23619,321944 23606,321937 23593,321930 23578,321927 23561,321927 23539,321927 23518,321935 23496,321952 23474,321968 23450,321993 23424,322025 L 23424,322383 C 23424,322386 23424,322388 23422,322390 23421,322393 23418,322394 23414,322396 23411,322397 23406,322398 23400,322399 23394,322400 23386,322400 23377,322400 23369,322400 23361,322400 23355,322399 23349,322398 23344,322397 23340,322396 23337,322394 23334,322393 23333,322390 23331,322388 23331,322386 23331,322383 L 23331,322072 C 23331,322050 23329,322030 23325,322013 23321,321995 23314,321979 23306,321967 23298,321954 23287,321944 23275,321937 23262,321930 23247,321927 23230,321927 23208,321927 23187,321935 23165,321952 23143,321968 23119,321993 23094,322025 L 23094,322383 C 23094,322386 23093,322388 23092,322390 23090,322393 23088,322394 23084,322396 23081,322397 23076,322398 23070,322399 23064,322400 23056,322400 23047,322400 23038,322400 23030,322400 23023,322399 23017,322398 23012,322397 23009,322396 23005,322394 23003,322393 23001,322390 23000,322388 22999,322386 22999,322383 L 22999,321872 C 22999,321869 23000,321866 23001,321864 23002,321862 23004,321860 23008,321859 23011,321857 23015,321856 23021,321855 23026,321855 23034,321854 23043,321854 23051,321854 23058,321855 23063,321855 23069,321856 23073,321857 23076,321859 23079,321860 23081,321862 23083,321864 23084,321866 23085,321869 23085,321872 L 23085,321939 C 23113,321907 23141,321884 23168,321869 23195,321854 23222,321846 23250,321846 23271,321846 23290,321849 23307,321854 23323,321858 23338,321865 23351,321874 23364,321883 23375,321894 23384,321906 23393,321918 23400,321932 23406,321947 23423,321929 23439,321913 23455,321900 23470,321887 23485,321877 23499,321869 23513,321861 23527,321855 23540,321852 23554,321848 23567,321846 23581,321846 23614,321846 23641,321852 23663,321863 23686,321875 23704,321890 23718,321910 23731,321929 23741,321951 23747,321977 23753,322003 23756,322031 23756,322059 L 23756,322383 Z"/>
   </g>
  </g>
  <g class="com.sun.star.drawing.ClosedBezierShape">
   <g id="id12">
    <rect class="BoundingBox" stroke="none" fill="none" x="23891" y="321845" width="420" height="563"/>
    <path fill="rgb(0,56,102)" stroke="none" d="M 24217,322150 L 24137,322150 C 24112,322150 24089,322152 24071,322156 24052,322160 24036,322167 24023,322175 24010,322184 24001,322194 23995,322206 23989,322218 23987,322231 23987,322247 23987,322273 23995,322295 24012,322310 24028,322326 24053,322334 24083,322334 24107,322334 24130,322328 24151,322315 24172,322303 24194,322284 24217,322257 L 24217,322150 Z M 24310,322383 C 24310,322388 24308,322391 24305,322394 24302,322396 24298,322398 24293,322399 24288,322400 24280,322400 24270,322400 24260,322400 24252,322400 24246,322399 24240,322398 24236,322396 24233,322394 24231,322391 24229,322388 24229,322383 L 24229,322332 C 24207,322356 24182,322375 24155,322388 24128,322401 24099,322407 24068,322407 24041,322407 24016,322404 23994,322397 23973,322390 23954,322380 23939,322366 23924,322353 23912,322337 23903,322318 23895,322299 23891,322276 23891,322251 23891,322223 23897,322198 23908,322177 23920,322156 23937,322138 23959,322124 23980,322110 24007,322100 24040,322093 24072,322086 24107,322082 24147,322082 L 24217,322082 24217,322043 C 24217,322023 24215,322006 24211,321990 24207,321975 24200,321963 24191,321953 24181,321943 24169,321935 24155,321930 24140,321925 24122,321922 24100,321922 24077,321922 24057,321925 24038,321930 24019,321936 24003,321942 23989,321948 23976,321955 23964,321961 23955,321966 23946,321972 23939,321974 23934,321974 23931,321974 23929,321974 23926,321972 23924,321971 23922,321968 23920,321965 23919,321962 23917,321958 23917,321954 23916,321949 23916,321944 23916,321938 23916,321929 23916,321921 23918,321916 23919,321910 23922,321905 23927,321900 23932,321895 23941,321890 23953,321883 23966,321876 23980,321870 23996,321865 24013,321860 24030,321855 24051,321851 24070,321848 24089,321846 24109,321846 24146,321846 24177,321850 24202,321859 24228,321867 24249,321879 24265,321895 24280,321911 24292,321931 24299,321955 24306,321979 24310,322007 24310,322038 L 24310,322383 Z"/>
   </g>
  </g>
  <g class="com.sun.star.drawing.ClosedBezierShape">
   <g id="id13">
    <rect class="BoundingBox" stroke="none" fill="none" x="24481" y="321607" width="470" height="801"/>
    <path fill="rgb(0,56,102)" stroke="none" d="M 24854,322130 C 24854,322104 24852,322079 24848,322055 24844,322030 24837,322008 24827,321990 24817,321971 24804,321956 24788,321944 24771,321933 24751,321927 24727,321927 24715,321927 24703,321929 24691,321932 24679,321935 24667,321941 24655,321949 24643,321957 24630,321967 24617,321979 24604,321992 24590,322007 24575,322026 L 24575,322230 C 24601,322261 24626,322285 24649,322301 24673,322317 24697,322325 24723,322325 24746,322325 24766,322320 24783,322308 24800,322297 24813,322282 24824,322264 24834,322245 24842,322224 24847,322201 24851,322178 24854,322154 24854,322130 Z M 24731,322407 C 24715,322407 24700,322406 24686,322402 24673,322399 24659,322393 24646,322386 24633,322379 24620,322370 24606,322359 24593,322348 24579,322334 24564,322319 L 24564,322382 C 24564,322385 24563,322387 24561,322390 24560,322392 24557,322394 24554,322395 24550,322396 24546,322398 24541,322399 24536,322400 24529,322400 24522,322400 24514,322400 24508,322400 24502,322399 24497,322398 24493,322396 24489,322395 24486,322394 24484,322392 24482,322390 24481,322387 24481,322385 24481,322382 L 24481,321625 C 24481,321622 24481,321619 24483,321617 24484,321615 24486,321613 24490,321611 24494,321610 24498,321609 24505,321608 24511,321607 24518,321607 24527,321607 24537,321607 24544,321607 24550,321608 24556,321609 24561,321610 24565,321611 24568,321613 24572,321615 24573,321617 24575,321619 24575,321622 24575,321625 L 24575,321930 C 24590,321914 24605,321901 24619,321891 24633,321880 24647,321872 24661,321865 24674,321858 24688,321854 24701,321851 24715,321848 24729,321846 24744,321846 24781,321846 24813,321853 24839,321868 24865,321883 24887,321903 24903,321927 24920,321952 24932,321981 24939,322014 24947,322048 24950,322083 24950,322120 24950,322164 24946,322204 24936,322239 24926,322274 24912,322304 24894,322329 24875,322354 24852,322373 24825,322386 24798,322401 24767,322407 24731,322407 Z"/>
   </g>
  </g>
  <g class="com.sun.star.drawing.ClosedBezierShape">
   <g id="id14">
    <rect class="BoundingBox" stroke="none" fill="none" x="26424" y="322183" width="2135" height="276"/>
    <path fill="rgb(0,56,102)" stroke="none" d="M 26547,322264 C 26534,322249 26517,322242 26495,322242 26473,322242 26456,322249 26443,322264 26430,322278 26424,322298 26424,322323 26424,322348 26430,322368 26443,322383 26456,322397 26473,322404 26495,322404 26517,322404 26534,322397 26547,322383 26560,322368 26566,322348 26566,322323 26566,322298 26560,322278 26547,322264 Z M 26527,322367 C 26520,322377 26509,322382 26495,322382 26481,322382 26470,322377 26462,322367 26454,322357 26451,322343 26451,322323 26451,322303 26454,322289 26462,322279 26470,322269 26481,322264 26495,322264 26509,322264 26520,322269 26527,322279 26535,322289 26539,322303 26539,322323 26539,322343 26535,322357 26527,322367 Z M 26715,322187 C 26712,322186 26707,322186 26703,322185 26698,322185 26693,322183 26687,322183 26670,322183 26656,322189 26647,322199 26637,322209 26633,322223 26633,322241 L 26633,322246 26615,322246 26615,322268 26633,322268 26633,322400 26659,322400 26659,322268 26706,322268 26706,322246 26658,322246 26658,322241 C 26658,322228 26661,322219 26667,322214 26672,322209 26680,322207 26691,322207 26694,322207 26698,322207 26703,322208 26707,322209 26711,322210 26714,322211 L 26715,322211 26715,322187 Z M 26990,322362 L 26989,322362 C 26987,322364 26984,322365 26981,322368 26977,322370 26974,322372 26970,322374 26966,322376 26961,322378 26956,322379 26950,322381 26945,322381 26940,322381 26924,322381 26913,322376 26904,322366 26896,322356 26892,322342 26892,322323 26892,322304 26896,322290 26905,322280 26913,322270 26925,322265 26940,322265 26948,322265 26956,322267 26964,322270 26973,322273 26981,322278 26989,322284 L 26990,322284 26990,322256 C 26983,322252 26975,322249 26967,322246 26958,322244 26949,322243 26941,322243 26918,322243 26900,322250 26886,322264 26872,322279 26865,322298 26865,322323 26865,322337 26867,322349 26871,322359 26874,322369 26879,322377 26886,322384 26893,322391 26901,322396 26910,322399 26919,322402 26930,322404 26941,322404 26949,322404 26958,322402 26965,322400 26973,322398 26981,322395 26990,322391 L 26990,322362 Z M 27164,322264 C 27151,322249 27134,322242 27113,322242 27091,322242 27073,322249 27061,322264 27048,322278 27041,322298 27041,322323 27041,322348 27048,322368 27061,322383 27073,322397 27091,322404 27113,322404 27134,322404 27151,322397 27164,322383 27177,322368 27184,322348 27184,322323 27184,322298 27177,322278 27164,322264 Z M 27145,322367 C 27137,322377 27126,322382 27113,322382 27099,322382 27088,322377 27080,322367 27072,322357 27068,322343 27068,322323 27068,322303 27072,322289 27080,322279 27088,322269 27099,322264 27113,322264 27126,322264 27137,322269 27145,322279 27153,322289 27157,322303 27157,322323 27157,322343 27153,322357 27145,322367 Z M 27474,322300 C 27474,322282 27470,322268 27462,322257 27454,322247 27442,322242 27425,322242 27415,322242 27406,322244 27397,322248 27389,322252 27379,322258 27369,322267 27365,322259 27360,322253 27352,322249 27345,322244 27336,322242 27326,322242 27316,322242 27308,322244 27300,322248 27292,322251 27284,322257 27276,322263 L 27276,322246 27250,322246 27250,322400 27276,322400 27276,322285 C 27283,322280 27290,322275 27297,322272 27304,322268 27311,322267 27318,322267 27326,322267 27331,322268 27335,322270 27339,322272 27342,322275 27344,322279 27346,322282 27348,322287 27348,322293 27349,322299 27349,322306 27349,322313 L 27349,322400 27375,322400 27375,322302 C 27375,322299 27375,322296 27375,322293 27375,322291 27374,322288 27374,322286 27381,322280 27389,322276 27396,322272 27403,322269 27410,322267 27418,322267 27425,322267 27431,322268 27435,322270 27439,322272 27442,322275 27444,322279 27446,322282 27447,322287 27448,322293 27448,322300 27448,322306 27448,322313 L 27448,322400 27474,322400 27474,322300 Z M 27669,322263 C 27658,322249 27644,322242 27625,322242 27616,322242 27606,322244 27598,322248 27589,322252 27581,322257 27575,322262 L 27575,322246 27549,322246 27549,322458 27575,322458 27575,322392 C 27581,322396 27588,322399 27594,322401 27601,322402 27608,322403 27616,322403 27625,322403 27634,322401 27642,322398 27650,322394 27658,322389 27664,322382 27670,322375 27675,322366 27679,322356 27682,322345 27684,322334 27684,322321 27684,322296 27679,322277 27669,322263 Z M 27645,322365 C 27637,322375 27626,322380 27612,322380 27605,322380 27599,322379 27594,322378 27588,322377 27582,322375 27575,322371 L 27575,322284 C 27581,322279 27589,322275 27596,322272 27604,322268 27611,322267 27619,322267 27632,322267 27642,322271 27648,322280 27654,322290 27657,322304 27657,322322 27657,322341 27653,322356 27645,322365 Z M 27871,322296 C 27871,322286 27869,322278 27866,322271 27863,322264 27859,322259 27853,322254 27847,322250 27840,322247 27832,322245 27824,322243 27815,322243 27804,322243 27795,322243 27785,322243 27776,322245 27766,322247 27759,322248 27754,322250 L 27754,322276 27755,322276 C 27764,322272 27773,322270 27781,322268 27789,322266 27797,322265 27804,322265 27809,322265 27815,322266 27820,322267 27825,322267 27829,322269 27833,322271 27837,322273 27840,322276 27842,322280 27844,322284 27845,322289 27845,322295 L 27845,322298 C 27830,322299 27816,322300 27803,322302 27790,322303 27778,322306 27769,322310 27760,322314 27753,322320 27748,322327 27743,322334 27740,322344 27740,322356 27740,322370 27745,322382 27755,322391 27764,322400 27776,322404 27790,322404 27797,322404 27804,322404 27810,322402 27815,322401 27820,322399 27824,322397 27828,322395 27832,322393 27836,322390 27840,322388 27843,322385 27845,322384 L 27845,322400 27871,322400 27871,322296 Z M 27824,322375 C 27817,322379 27808,322380 27799,322380 27788,322380 27780,322378 27775,322374 27770,322369 27767,322363 27767,322354 27767,322346 27769,322340 27774,322335 27778,322331 27784,322328 27792,322326 27798,322324 27807,322322 27817,322322 27828,322321 27837,322320 27845,322319 L 27845,322362 C 27839,322367 27832,322372 27824,322375 Z M 28074,322300 C 28074,322281 28070,322267 28061,322257 28052,322247 28039,322242 28023,322242 28014,322242 28005,322244 27996,322248 27988,322251 27979,322257 27971,322263 L 27971,322246 27945,322246 27945,322400 27971,322400 27971,322285 C 27978,322280 27986,322275 27993,322272 28001,322268 28008,322267 28016,322267 28022,322267 28028,322268 28032,322269 28037,322271 28040,322274 28042,322278 28044,322282 28046,322286 28047,322293 28048,322299 28048,322305 28048,322313 L 28048,322400 28074,322400 28074,322300 Z M 28176,322194 L 28146,322194 28146,322221 28176,322221 28176,322194 Z M 28174,322246 L 28148,322246 28148,322400 28174,322400 28174,322246 Z M 28379,322312 C 28379,322290 28374,322272 28363,322260 28351,322248 28335,322242 28315,322242 28292,322242 28274,322249 28260,322264 28247,322279 28240,322299 28240,322324 28240,322350 28247,322369 28261,322383 28276,322397 28295,322404 28321,322404 28331,322404 28341,322403 28350,322400 28359,322398 28368,322395 28376,322391 L 28376,322363 28375,322363 C 28371,322367 28363,322371 28352,322375 28342,322379 28331,322381 28321,322381 28313,322381 28306,322380 28299,322378 28292,322376 28287,322372 28282,322368 28277,322363 28273,322358 28270,322351 28267,322344 28266,322335 28266,322326 L 28379,322326 28379,322312 Z M 28266,322306 C 28267,322294 28272,322284 28280,322276 28288,322267 28299,322263 28313,322263 28327,322263 28337,322267 28344,322275 28351,322282 28354,322292 28354,322306 L 28266,322306 Z M 28548,322329 C 28542,322322 28533,322317 28521,322315 28517,322314 28512,322313 28506,322312 28500,322310 28494,322309 28490,322308 28481,322306 28475,322304 28471,322300 28467,322297 28465,322292 28465,322286 28465,322279 28468,322274 28475,322270 28481,322266 28489,322264 28499,322264 28508,322264 28517,322266 28527,322269 28536,322273 28544,322277 28551,322282 L 28552,322282 28552,322254 C 28546,322251 28538,322248 28529,322246 28519,322244 28510,322243 28501,322243 28491,322243 28482,322244 28474,322246 28466,322249 28460,322252 28454,322257 28449,322261 28445,322266 28442,322272 28440,322277 28439,322283 28439,322290 28439,322300 28441,322308 28447,322315 28453,322322 28462,322327 28476,322331 28481,322332 28486,322333 28492,322334 28498,322336 28503,322337 28506,322337 28516,322340 28523,322342 28526,322345 28530,322348 28532,322353 28532,322359 28532,322367 28528,322373 28522,322376 28516,322380 28507,322382 28495,322382 28486,322382 28477,322380 28467,322377 28456,322373 28447,322368 28439,322362 L 28438,322362 28438,322391 C 28444,322394 28452,322397 28462,322400 28471,322403 28482,322404 28493,322404 28513,322404 28529,322399 28541,322390 28552,322381 28558,322370 28558,322356 28558,322345 28555,322336 28548,322329 Z"/>
   </g>
  </g>
  <g class="com.sun.star.drawing.ClosedBezierShape">
   <g id="id15">
    <rect class="BoundingBox" stroke="none" fill="none" x="26433" y="321786" width="1877" height="274"/>
    <path fill="rgb(0,56,102)" stroke="none" d="M 26598,321883 C 26602,321882 26606,321881 26610,321881 26617,321881 26621,321882 26625,321883 26628,321885 26631,321887 26632,321891 26634,321894 26635,321898 26635,321903 26635,321909 26636,321916 26636,321924 L 26636,322001 26685,322001 26685,321899 C 26685,321880 26681,321866 26672,321856 26664,321846 26651,321841 26634,321841 26625,321841 26616,321843 26607,321848 26597,321853 26588,321860 26578,321868 26574,321859 26567,321852 26560,321848 26552,321843 26543,321841 26533,321841 26523,321841 26515,321843 26507,321847 26499,321850 26491,321856 26482,321862 L 26482,321845 26433,321845 26433,322001 26482,322001 26482,321890 C 26486,321888 26490,321886 26495,321884 26499,321882 26504,321881 26509,321881 26515,321881 26520,321882 26523,321883 26526,321885 26529,321887 26531,321891 26532,321894 26533,321898 26534,321903 26534,321909 26534,321916 26534,321924 L 26534,322001 26584,322001 26584,321890 C 26590,321887 26594,321885 26598,321883 Z M 26837,321968 C 26832,321971 26827,321972 26822,321972 26816,321972 26811,321971 26808,321970 26805,321969 26803,321968 26801,321966 26799,321964 26797,321962 26797,321960 26796,321958 26796,321956 26796,321953 26796,321948 26797,321944 26800,321941 26802,321938 26806,321936 26811,321934 26815,321933 26821,321932 26829,321931 26837,321930 26844,321929 26851,321928 L 26851,321961 C 26847,321964 26842,321966 26837,321968 Z M 26851,322001 L 26900,322001 26900,321895 C 26900,321876 26894,321863 26881,321854 26869,321845 26848,321841 26820,321841 26808,321841 26796,321842 26784,321844 26773,321846 26764,321847 26759,321849 L 26759,321886 26763,321886 C 26768,321884 26774,321882 26783,321879 26793,321876 26801,321875 26810,321875 26823,321875 26834,321877 26840,321880 26847,321883 26851,321889 26851,321897 L 26851,321898 C 26836,321899 26822,321900 26809,321902 26795,321904 26784,321907 26774,321911 26765,321916 26758,321922 26753,321929 26748,321936 26745,321945 26745,321957 26745,321971 26750,321982 26760,321991 26770,322001 26783,322005 26797,322005 26803,322005 26809,322005 26814,322004 26820,322003 26825,322001 26830,321999 26833,321997 26837,321995 26841,321992 26845,321989 26848,321987 26851,321985 L 26851,322001 Z M 27116,321862 C 27105,321848 27090,321841 27071,321841 27061,321841 27051,321843 27043,321847 27036,321850 27028,321855 27020,321861 L 27020,321786 26970,321786 26970,322001 27018,322001 27020,321993 C 27026,321997 27032,321999 27039,322001 27045,322003 27053,322004 27061,322004 27081,322004 27098,321996 27112,321981 27125,321966 27132,321946 27132,321922 27132,321896 27127,321876 27116,321862 Z M 27071,321957 C 27065,321965 27055,321969 27042,321969 27037,321969 27034,321969 27030,321968 27027,321968 27024,321967 27020,321965 L 27020,321887 C 27025,321884 27029,321882 27034,321881 27039,321879 27044,321879 27049,321879 27061,321879 27069,321882 27074,321890 27078,321897 27081,321908 27081,321923 27081,321938 27078,321950 27071,321957 Z M 27461,321845 L 27413,321845 27411,321852 C 27405,321849 27399,321846 27392,321844 27385,321842 27378,321841 27369,321841 27360,321841 27351,321843 27342,321846 27333,321850 27326,321855 27320,321861 27313,321868 27308,321876 27305,321886 27301,321895 27299,321906 27299,321920 27299,321946 27305,321966 27317,321979 27329,321992 27345,321999 27367,321999 27376,321999 27384,321997 27391,321995 27398,321992 27405,321988 27411,321983 L 27411,321986 C 27411,321992 27410,321998 27409,322002 27408,322007 27406,322011 27403,322014 27400,322017 27396,322019 27390,322021 27384,322023 27377,322023 27367,322023 27361,322023 27353,322022 27344,322020 27335,322019 27328,322016 27322,322014 L 27316,322014 27316,322053 C 27323,322055 27332,322056 27343,322057 27353,322059 27364,322059 27375,322059 27388,322059 27400,322058 27410,322055 27421,322053 27430,322049 27437,322043 27445,322038 27450,322030 27455,322020 27459,322010 27461,321998 27461,321983 L 27461,321845 Z M 27398,321958 C 27393,321960 27388,321961 27383,321961 27372,321961 27364,321958 27359,321952 27353,321946 27350,321936 27350,321921 27350,321906 27354,321896 27360,321888 27367,321881 27376,321877 27389,321877 27393,321877 27396,321878 27401,321878 27405,321879 27408,321880 27411,321881 L 27411,321952 C 27407,321955 27403,321957 27398,321958 Z M 27644,321845 C 27643,321845 27641,321845 27639,321845 27636,321845 27634,321845 27633,321845 27626,321845 27618,321846 27610,321849 27602,321852 27593,321859 27582,321868 L 27582,321845 27532,321845 27532,322001 27582,322001 27582,321896 C 27588,321894 27594,321893 27599,321892 27605,321891 27611,321890 27618,321890 27621,321890 27625,321890 27630,321891 27634,321891 27638,321892 27640,321893 L 27644,321893 27644,321845 Z M 27838,321862 C 27823,321848 27802,321840 27775,321840 27749,321840 27728,321848 27713,321862 27698,321877 27691,321897 27691,321924 27691,321949 27698,321969 27713,321984 27728,321999 27749,322006 27775,322006 27802,322006 27823,321999 27838,321984 27853,321969 27860,321949 27860,321924 27860,321897 27853,321877 27838,321862 Z M 27789,321969 C 27785,321970 27780,321971 27776,321971 27771,321971 27766,321970 27762,321969 27758,321967 27754,321964 27751,321961 27748,321957 27746,321952 27744,321946 27743,321940 27742,321932 27742,321924 27742,321915 27743,321906 27745,321899 27747,321893 27749,321888 27752,321885 27755,321881 27759,321878 27763,321877 27766,321876 27771,321875 27775,321875 27780,321875 27785,321876 27789,321877 27793,321879 27796,321882 27799,321885 27802,321889 27805,321894 27806,321900 27808,321906 27809,321915 27809,321924 27809,321934 27808,321942 27806,321947 27805,321953 27802,321957 27799,321961 27796,321965 27793,321967 27789,321969 Z M 28076,321845 L 28026,321845 28026,321956 C 28021,321959 28017,321961 28011,321963 28006,321964 28002,321965 27997,321965 27991,321965 27986,321964 27983,321963 27979,321961 27976,321959 27975,321955 27973,321952 27972,321948 27971,321942 27971,321937 27970,321931 27970,321923 L 27970,321845 27921,321845 27921,321947 C 27921,321966 27925,321981 27934,321991 27944,322000 27957,322005 27974,322005 27984,322005 27993,322003 28001,322000 28009,321996 28017,321991 28026,321984 L 28026,322001 28076,322001 28076,321845 Z M 28293,321862 C 28282,321848 28267,321841 28248,321841 28238,321841 28228,321843 28220,321847 28212,321850 28205,321855 28197,321861 L 28197,321845 28147,321845 28147,322058 28197,322058 28197,321993 C 28204,321997 28210,321999 28216,322001 28222,322003 28230,322004 28238,322004 28248,322004 28257,322002 28265,321999 28274,321995 28281,321989 28288,321982 28294,321975 28299,321967 28303,321956 28307,321946 28309,321934 28309,321922 28309,321896 28304,321876 28293,321862 Z M 28248,321957 C 28242,321965 28232,321969 28219,321969 28215,321969 28211,321968 28208,321968 28204,321968 28200,321967 28197,321966 L 28197,321887 C 28202,321884 28206,321882 28211,321881 28216,321879 28221,321879 28226,321879 28237,321879 28245,321882 28250,321889 28255,321896 28258,321907 28258,321923 28258,321938 28255,321949 28248,321957 Z"/>
   </g>
  </g>
 </g>
</svg>