<?xml version="1.0" encoding="UTF-8"?>
<!DOCTYPE svg PUBLIC "-//W3C//DTD SVG 1.1//EN" "http://www.w3.org/Graphics/SVG/1.1/DTD/svg11.dtd">
<svg version="1.2" width="12.46mm" height="12.45mm" viewBox="41747 194011 1246 1245" preserveAspectRatio="xMidYMid" fill-rule="evenodd" stroke-width="28.222" stroke-linejoin="round" xmlns="http://www.w3.org/2000/svg" xmlns:ooo="http://xml.openoffice.org/svg/export" xmlns:xlink="http://www.w3.org/1999/xlink" xmlns:presentation="http://sun.com/xmlns/staroffice/presentation" xmlns:smil="http://www.w3.org/2001/SMIL20/" xmlns:anim="urn:oasis:names:tc:opendocument:xmlns:animation:1.0" xml:space="preserve">
 <defs class="EmbeddedBulletChars">
  <g id="bullet-char-template-57356" transform="scale(0.00048828125,-0.00048828125)">
   <path d="M 580,1141 L 1163,571 580,0 -4,571 580,1141 Z"/>
  </g>
  <g id="bullet-char-template-57354" transform="scale(0.00048828125,-0.00048828125)">
   <path d="M 8,1128 L 1137,1128 1137,0 8,0 8,1128 Z"/>
  </g>
  <g id="bullet-char-template-10146" transform="scale(0.00048828125,-0.00048828125)">
   <path d="M 174,0 L 602,739 174,1481 1456,739 174,0 Z M 1358,739 L 309,1346 659,739 1358,739 Z"/>
  </g>
  <g id="bullet-char-template-10132" transform="scale(0.00048828125,-0.00048828125)">
   <path d="M 2015,739 L 1276,0 717,0 1260,543 174,543 174,936 1260,936 717,1481 1274,1481 2015,739 Z"/>
  </g>
  <g id="bullet-char-template-10007" transform="scale(0.00048828125,-0.00048828125)">
   <path d="M 0,-2 C -7,14 -16,27 -25,37 L 356,567 C 262,823 215,952 215,954 215,979 228,992 255,992 264,992 276,990 289,987 310,991 331,999 354,1012 L 381,999 492,748 772,1049 836,1024 860,1049 C 881,1039 901,1025 922,1006 886,937 835,863 770,784 769,783 710,716 594,584 L 774,223 C 774,196 753,168 711,139 L 727,119 C 717,90 699,76 672,76 641,76 570,178 457,381 L 164,-76 C 142,-110 111,-127 72,-127 30,-127 9,-110 8,-76 1,-67 -2,-52 -2,-32 -2,-23 -1,-13 0,-2 Z"/>
  </g>
  <g id="bullet-char-template-10004" transform="scale(0.00048828125,-0.00048828125)">
   <path d="M 285,-33 C 182,-33 111,30 74,156 52,228 41,333 41,471 41,549 55,616 82,672 116,743 169,778 240,778 293,778 328,747 346,684 L 369,508 C 377,444 397,411 428,410 L 1163,1116 C 1174,1127 1196,1133 1229,1133 1271,1133 1292,1118 1292,1087 L 1292,965 C 1292,929 1282,901 1262,881 L 442,47 C 390,-6 338,-33 285,-33 Z"/>
  </g>
  <g id="bullet-char-template-9679" transform="scale(0.00048828125,-0.00048828125)">
   <path d="M 813,0 C 632,0 489,54 383,161 276,268 223,411 223,592 223,773 276,916 383,1023 489,1130 632,1184 813,1184 992,1184 1136,1130 1245,1023 1353,916 1407,772 1407,592 1407,412 1353,268 1245,161 1136,54 992,0 813,0 Z"/>
  </g>
  <g id="bullet-char-template-8226" transform="scale(0.00048828125,-0.00048828125)">
   <path d="M 346,457 C 273,457 209,483 155,535 101,586 74,649 74,723 74,796 101,859 155,911 209,963 273,989 346,989 419,989 480,963 531,910 582,859 608,796 608,723 608,648 583,586 532,535 482,483 420,457 346,457 Z"/>
  </g>
  <g id="bullet-char-template-8211" transform="scale(0.00048828125,-0.00048828125)">
   <path d="M -4,459 L 1135,459 1135,606 -4,606 -4,459 Z"/>
  </g>
  <g id="bullet-char-template-61548" transform="scale(0.00048828125,-0.00048828125)">
   <path d="M 173,740 C 173,903 231,1043 346,1159 462,1274 601,1332 765,1332 928,1332 1067,1274 1183,1159 1299,1043 1357,903 1357,740 1357,577 1299,437 1183,322 1067,206 928,148 765,148 601,148 462,206 346,322 231,437 173,577 173,740 Z"/>
  </g>
 </defs>
 <g class="Page">
  <g class="com.sun.star.drawing.ClosedBezierShape">
   <g id="id3">
    <rect class="BoundingBox" stroke="none" fill="none" x="41747" y="194011" width="1246" height="1245"/>
    <path fill="rgb(0,159,227)" stroke="none" d="M 42490,194063 L 42511,194166 C 42542,194175 42570,194187 42597,194201 L 42686,194144 C 42708,194130 42737,194131 42758,194148 42795,194177 42824,194207 42854,194243 42871,194264 42872,194292 42857,194314 L 42799,194405 C 42814,194431 42825,194461 42835,194490 L 42939,194512 C 42965,194518 42984,194539 42987,194567 42993,194612 42993,194655 42987,194700 42984,194726 42965,194749 42939,194754 L 42835,194777 C 42825,194806 42814,194834 42799,194862 L 42857,194951 C 42872,194974 42871,195002 42854,195023 42824,195059 42795,195088 42758,195118 42737,195134 42708,195136 42686,195120 L 42597,195063 C 42570,195078 42542,195090 42511,195099 L 42490,195203 C 42484,195228 42462,195248 42435,195250 42391,195256 42347,195256 42303,195250 42275,195248 42254,195228 42248,195203 L 42226,195099 C 42196,195090 42167,195078 42140,195063 L 42051,195120 C 42029,195136 42001,195134 41980,195118 41943,195088 41914,195059 41885,195023 41868,195002 41867,194974 41881,194951 L 41938,194862 C 41924,194834 41911,194806 41903,194777 L 41799,194754 C 41773,194749 41755,194726 41752,194700 41746,194655 41746,194612 41752,194567 41755,194539 41773,194518 41799,194512 L 41903,194490 C 41911,194461 41924,194431 41938,194405 L 41881,194314 C 41867,194292 41868,194264 41885,194243 41914,194207 41943,194177 41980,194148 42001,194131 42029,194130 42051,194144 L 42140,194201 C 42167,194187 42196,194175 42226,194166 L 42248,194063 C 42254,194036 42275,194018 42303,194015 42347,194010 42391,194010 42435,194015 42462,194018 42484,194036 42490,194063 Z M 42368,194388 C 42234,194388 42124,194498 42124,194633 42124,194768 42234,194879 42368,194879 42504,194879 42614,194768 42614,194633 42614,194498 42504,194388 42368,194388 Z"/>
   </g>
  </g>
 </g>
</svg>